<svg xmlns="http://www.w3.org/2000/svg" viewBox="0 0 512 512">
  <rect width="512" height="512" rx="96" fill="#1e293b"/>
  <path d="M256 128c-70.7 0-128 57.3-128 128s57.3 128 128 128 128-57.3 128-128-57.3-128-128-128zm0 224c-52.9 0-96-43.1-96-96s43.1-96 96-96 96 43.1 96 96-43.1 96-96 96z" fill="#ffffff"/>
  <path d="M320 224h-48v-48c0-8.8-7.2-16-16-16s-16 7.2-16 16v48h-48c-8.8 0-16 7.2-16 16s7.2 16 16 16h48v48c0 8.8 7.2 16 16 16s16-7.2 16-16v-48h48c8.8 0 16-7.2 16-16s-7.2-16-16-16z" fill="#ffffff"/>
  <rect x="128" y="368" width="256" height="32" rx="8" fill="#ffffff" opacity="0.8"/>
  <rect x="160" y="112" width="192" height="24" rx="6" fill="#ffffff" opacity="0.6"/>
</svg>
